<mxfile host="Electron" agent="Mozilla/5.0 (Windows NT 10.0; Win64; x64) AppleWebKit/537.36 (KHTML, like Gecko) draw.io/24.7.8 Chrome/128.0.6613.36 Electron/32.0.1 Safari/537.36" version="24.7.8">
  <diagram id="C5RBs43oDa-KdzZeNtuy" name="Page-1">
    <mxGraphModel dx="999" dy="879" grid="1" gridSize="10" guides="1" tooltips="1" connect="1" arrows="1" fold="1" page="1" pageScale="1" pageWidth="827" pageHeight="1169" math="0" shadow="0">
      <root>
        <mxCell id="WIyWlLk6GJQsqaUBKTNV-0" />
        <mxCell id="WIyWlLk6GJQsqaUBKTNV-1" parent="WIyWlLk6GJQsqaUBKTNV-0" />
        <mxCell id="GW7OH87olpXqv1E2z_X4-4" value="" style="edgeStyle=orthogonalEdgeStyle;rounded=0;orthogonalLoop=1;jettySize=auto;html=1;" edge="1" parent="WIyWlLk6GJQsqaUBKTNV-1" source="GW7OH87olpXqv1E2z_X4-2">
          <mxGeometry relative="1" as="geometry">
            <mxPoint x="163" y="230" as="targetPoint" />
          </mxGeometry>
        </mxCell>
        <mxCell id="GW7OH87olpXqv1E2z_X4-2" value="START" style="strokeWidth=2;html=1;shape=mxgraph.flowchart.terminator;whiteSpace=wrap;" vertex="1" parent="WIyWlLk6GJQsqaUBKTNV-1">
          <mxGeometry x="83" y="80" width="160" height="90" as="geometry" />
        </mxCell>
        <mxCell id="GW7OH87olpXqv1E2z_X4-8" value="" style="edgeStyle=orthogonalEdgeStyle;rounded=0;orthogonalLoop=1;jettySize=auto;html=1;" edge="1" parent="WIyWlLk6GJQsqaUBKTNV-1" source="GW7OH87olpXqv1E2z_X4-5">
          <mxGeometry relative="1" as="geometry">
            <mxPoint x="170" y="485" as="targetPoint" />
          </mxGeometry>
        </mxCell>
        <mxCell id="GW7OH87olpXqv1E2z_X4-5" value="&lt;b&gt;&quot;정렬할 원소 : &quot;&lt;/b&gt;" style="strokeWidth=2;html=1;shape=mxgraph.flowchart.display;whiteSpace=wrap;" vertex="1" parent="WIyWlLk6GJQsqaUBKTNV-1">
          <mxGeometry x="120" y="370" width="100" height="60" as="geometry" />
        </mxCell>
        <mxCell id="GW7OH87olpXqv1E2z_X4-16" value="" style="edgeStyle=orthogonalEdgeStyle;rounded=0;orthogonalLoop=1;jettySize=auto;html=1;" edge="1" parent="WIyWlLk6GJQsqaUBKTNV-1">
          <mxGeometry relative="1" as="geometry">
            <mxPoint x="176" y="650" as="sourcePoint" />
            <mxPoint x="176" y="720" as="targetPoint" />
          </mxGeometry>
        </mxCell>
        <mxCell id="GW7OH87olpXqv1E2z_X4-11" value="" style="edgeStyle=orthogonalEdgeStyle;rounded=0;orthogonalLoop=1;jettySize=auto;html=1;" edge="1" parent="WIyWlLk6GJQsqaUBKTNV-1" source="GW7OH87olpXqv1E2z_X4-10" target="GW7OH87olpXqv1E2z_X4-5">
          <mxGeometry relative="1" as="geometry" />
        </mxCell>
        <mxCell id="GW7OH87olpXqv1E2z_X4-10" value="&lt;b&gt;int[] arr = {69, 10, 30, 2, 16, 8, 31, 22};&lt;/b&gt;&lt;div&gt;&lt;b&gt;int i, j, k, minidx, temp;&lt;/b&gt;&lt;/div&gt;" style="shape=hexagon;perimeter=hexagonPerimeter2;whiteSpace=wrap;html=1;fixedSize=1;strokeWidth=2;" vertex="1" parent="WIyWlLk6GJQsqaUBKTNV-1">
          <mxGeometry x="55" y="230" width="230" height="80" as="geometry" />
        </mxCell>
        <mxCell id="GW7OH87olpXqv1E2z_X4-19" value="" style="edgeStyle=orthogonalEdgeStyle;rounded=0;orthogonalLoop=1;jettySize=auto;html=1;" edge="1" parent="WIyWlLk6GJQsqaUBKTNV-1" source="GW7OH87olpXqv1E2z_X4-17">
          <mxGeometry relative="1" as="geometry">
            <mxPoint x="170" y="820" as="targetPoint" />
          </mxGeometry>
        </mxCell>
        <mxCell id="GW7OH87olpXqv1E2z_X4-17" value="&lt;b&gt;&quot;\n\n&quot;&lt;/b&gt;" style="strokeWidth=2;html=1;shape=mxgraph.flowchart.display;whiteSpace=wrap;" vertex="1" parent="WIyWlLk6GJQsqaUBKTNV-1">
          <mxGeometry x="120" y="720" width="100" height="60" as="geometry" />
        </mxCell>
        <mxCell id="GW7OH87olpXqv1E2z_X4-22" value="" style="edgeStyle=orthogonalEdgeStyle;rounded=0;orthogonalLoop=1;jettySize=auto;html=1;" edge="1" parent="WIyWlLk6GJQsqaUBKTNV-1" source="GW7OH87olpXqv1E2z_X4-20" target="GW7OH87olpXqv1E2z_X4-21">
          <mxGeometry relative="1" as="geometry" />
        </mxCell>
        <mxCell id="GW7OH87olpXqv1E2z_X4-20" value="&lt;b&gt;&quot;&amp;lt;&amp;lt;&amp;lt;&amp;lt;&amp;lt;&amp;lt;&amp;lt;&amp;lt;&amp;lt;&amp;lt; 선택 정렬 수행 &amp;gt;&amp;gt;&amp;gt;&amp;gt;&amp;gt;&amp;gt;&amp;gt;&amp;gt;&amp;gt;&amp;gt;&quot;&lt;/b&gt;" style="strokeWidth=2;html=1;shape=mxgraph.flowchart.display;whiteSpace=wrap;" vertex="1" parent="WIyWlLk6GJQsqaUBKTNV-1">
          <mxGeometry x="45" y="820" width="250" height="60" as="geometry" />
        </mxCell>
        <mxCell id="GW7OH87olpXqv1E2z_X4-25" value="" style="edgeStyle=orthogonalEdgeStyle;rounded=0;orthogonalLoop=1;jettySize=auto;html=1;" edge="1" parent="WIyWlLk6GJQsqaUBKTNV-1" source="GW7OH87olpXqv1E2z_X4-21">
          <mxGeometry relative="1" as="geometry">
            <mxPoint x="170" y="1010" as="targetPoint" />
          </mxGeometry>
        </mxCell>
        <mxCell id="GW7OH87olpXqv1E2z_X4-21" value="&lt;b&gt;&quot;\n\n&quot;&lt;/b&gt;" style="strokeWidth=2;html=1;shape=mxgraph.flowchart.display;whiteSpace=wrap;" vertex="1" parent="WIyWlLk6GJQsqaUBKTNV-1">
          <mxGeometry x="120" y="910" width="100" height="60" as="geometry" />
        </mxCell>
        <mxCell id="GW7OH87olpXqv1E2z_X4-31" value="" style="group" vertex="1" connectable="0" parent="WIyWlLk6GJQsqaUBKTNV-1">
          <mxGeometry x="140" y="1010" width="60" height="50" as="geometry" />
        </mxCell>
        <mxCell id="GW7OH87olpXqv1E2z_X4-28" value="" style="verticalLabelPosition=bottom;verticalAlign=top;html=1;shape=mxgraph.flowchart.on-page_reference;" vertex="1" parent="GW7OH87olpXqv1E2z_X4-31">
          <mxGeometry x="5" width="50" height="50" as="geometry" />
        </mxCell>
        <mxCell id="GW7OH87olpXqv1E2z_X4-29" value="A" style="text;html=1;align=center;verticalAlign=middle;whiteSpace=wrap;rounded=0;" vertex="1" parent="GW7OH87olpXqv1E2z_X4-31">
          <mxGeometry y="10" width="60" height="30" as="geometry" />
        </mxCell>
        <mxCell id="GW7OH87olpXqv1E2z_X4-32" value="" style="group" vertex="1" connectable="0" parent="WIyWlLk6GJQsqaUBKTNV-1">
          <mxGeometry x="507" y="16" width="60" height="50" as="geometry" />
        </mxCell>
        <mxCell id="GW7OH87olpXqv1E2z_X4-33" value="" style="verticalLabelPosition=bottom;verticalAlign=top;html=1;shape=mxgraph.flowchart.on-page_reference;" vertex="1" parent="GW7OH87olpXqv1E2z_X4-32">
          <mxGeometry x="5" width="50.00000000000001" height="50" as="geometry" />
        </mxCell>
        <mxCell id="GW7OH87olpXqv1E2z_X4-34" value="A" style="text;html=1;align=center;verticalAlign=middle;whiteSpace=wrap;rounded=0;" vertex="1" parent="GW7OH87olpXqv1E2z_X4-32">
          <mxGeometry x="-1" y="10" width="60" height="30" as="geometry" />
        </mxCell>
        <mxCell id="GW7OH87olpXqv1E2z_X4-35" value="&lt;font style=&quot;font-size: 14px;&quot;&gt;i=0;i&amp;lt;7;i++&lt;/font&gt;" style="swimlane;whiteSpace=wrap;html=1;" vertex="1" parent="WIyWlLk6GJQsqaUBKTNV-1">
          <mxGeometry x="380" y="102" width="362.5" height="988" as="geometry" />
        </mxCell>
        <mxCell id="GW7OH87olpXqv1E2z_X4-42" value="&lt;font style=&quot;font-size: 14px;&quot;&gt;&lt;b&gt;minidx = i;&lt;/b&gt;&lt;/font&gt;" style="rounded=1;whiteSpace=wrap;html=1;" vertex="1" parent="GW7OH87olpXqv1E2z_X4-35">
          <mxGeometry x="100" y="50" width="120" height="60" as="geometry" />
        </mxCell>
        <mxCell id="GW7OH87olpXqv1E2z_X4-43" value="&lt;font style=&quot;font-size: 14px;&quot;&gt;j=i+1;j&amp;lt;8;j++&lt;/font&gt;" style="swimlane;whiteSpace=wrap;html=1;startSize=23;" vertex="1" parent="GW7OH87olpXqv1E2z_X4-35">
          <mxGeometry x="40" y="150" width="300" height="330" as="geometry" />
        </mxCell>
        <mxCell id="GW7OH87olpXqv1E2z_X4-51" value="" style="edgeStyle=orthogonalEdgeStyle;rounded=0;orthogonalLoop=1;jettySize=auto;html=1;" edge="1" parent="GW7OH87olpXqv1E2z_X4-43" source="GW7OH87olpXqv1E2z_X4-49" target="GW7OH87olpXqv1E2z_X4-50">
          <mxGeometry relative="1" as="geometry" />
        </mxCell>
        <mxCell id="GW7OH87olpXqv1E2z_X4-49" value="&lt;b&gt;&lt;font style=&quot;font-size: 14px;&quot;&gt;arr[j]&amp;lt;arr[minidx]&lt;/font&gt;&lt;/b&gt;" style="rhombus;whiteSpace=wrap;html=1;" vertex="1" parent="GW7OH87olpXqv1E2z_X4-43">
          <mxGeometry x="45" y="65" width="145" height="110" as="geometry" />
        </mxCell>
        <mxCell id="GW7OH87olpXqv1E2z_X4-50" value="&lt;font style=&quot;font-size: 18px;&quot;&gt;&lt;b&gt;minidx=j;&lt;/b&gt;&lt;/font&gt;" style="rounded=0;whiteSpace=wrap;html=1;" vertex="1" parent="GW7OH87olpXqv1E2z_X4-43">
          <mxGeometry x="57.5" y="224" width="120" height="60" as="geometry" />
        </mxCell>
        <mxCell id="GW7OH87olpXqv1E2z_X4-82" value="&lt;b&gt;Y&lt;/b&gt;" style="text;strokeColor=none;fillColor=none;align=left;verticalAlign=middle;spacingLeft=4;spacingRight=4;overflow=hidden;points=[[0,0.5],[1,0.5]];portConstraint=eastwest;rotatable=0;whiteSpace=wrap;html=1;" vertex="1" parent="GW7OH87olpXqv1E2z_X4-43">
          <mxGeometry x="90" y="158" width="20" height="30" as="geometry" />
        </mxCell>
        <mxCell id="GW7OH87olpXqv1E2z_X4-83" value="&lt;b&gt;N&lt;/b&gt;" style="text;strokeColor=none;fillColor=none;align=left;verticalAlign=middle;spacingLeft=4;spacingRight=4;overflow=hidden;points=[[0,0.5],[1,0.5]];portConstraint=eastwest;rotatable=0;whiteSpace=wrap;html=1;" vertex="1" parent="GW7OH87olpXqv1E2z_X4-43">
          <mxGeometry x="177.5" y="88" width="20" height="30" as="geometry" />
        </mxCell>
        <mxCell id="GW7OH87olpXqv1E2z_X4-48" value="" style="endArrow=classic;html=1;rounded=0;exitX=0.5;exitY=1;exitDx=0;exitDy=0;" edge="1" parent="GW7OH87olpXqv1E2z_X4-35" source="GW7OH87olpXqv1E2z_X4-42">
          <mxGeometry width="50" height="50" relative="1" as="geometry">
            <mxPoint x="-30" y="410" as="sourcePoint" />
            <mxPoint x="160" y="148" as="targetPoint" />
          </mxGeometry>
        </mxCell>
        <mxCell id="GW7OH87olpXqv1E2z_X4-73" value="" style="edgeStyle=orthogonalEdgeStyle;rounded=0;orthogonalLoop=1;jettySize=auto;html=1;" edge="1" parent="GW7OH87olpXqv1E2z_X4-35" source="GW7OH87olpXqv1E2z_X4-55" target="GW7OH87olpXqv1E2z_X4-56">
          <mxGeometry relative="1" as="geometry" />
        </mxCell>
        <mxCell id="GW7OH87olpXqv1E2z_X4-55" value="&lt;div style=&quot;text-align: left;&quot;&gt;&lt;b style=&quot;background-color: initial;&quot;&gt;&lt;font style=&quot;font-size: 14px;&quot;&gt;temp = arr[i];&lt;/font&gt;&lt;/b&gt;&lt;/div&gt;&lt;div style=&quot;text-align: left;&quot;&gt;&lt;b&gt;&lt;font style=&quot;font-size: 14px;&quot;&gt;arr[i] = arr[minidx];&lt;/font&gt;&lt;/b&gt;&lt;/div&gt;&lt;div style=&quot;text-align: left;&quot;&gt;&lt;b&gt;&lt;font style=&quot;font-size: 14px;&quot;&gt;arr[minidx] = temp;&lt;/font&gt;&lt;/b&gt;&lt;/div&gt;" style="rounded=0;whiteSpace=wrap;html=1;" vertex="1" parent="GW7OH87olpXqv1E2z_X4-35">
          <mxGeometry x="75" y="530" width="180" height="70" as="geometry" />
        </mxCell>
        <mxCell id="GW7OH87olpXqv1E2z_X4-56" value="&lt;font style=&quot;font-size: 14px;&quot;&gt;&lt;b&gt;(i + 1) + &quot;단계: &quot;&lt;/b&gt;&lt;/font&gt;" style="strokeWidth=2;html=1;shape=mxgraph.flowchart.display;whiteSpace=wrap;" vertex="1" parent="GW7OH87olpXqv1E2z_X4-35">
          <mxGeometry x="108.5" y="626" width="115" height="60" as="geometry" />
        </mxCell>
        <mxCell id="GW7OH87olpXqv1E2z_X4-58" value="" style="group" vertex="1" connectable="0" parent="GW7OH87olpXqv1E2z_X4-35">
          <mxGeometry x="66" y="710" width="200" height="165" as="geometry" />
        </mxCell>
        <mxCell id="GW7OH87olpXqv1E2z_X4-59" value="&amp;nbsp;k = 0; k&amp;lt;8;k++" style="swimlane;whiteSpace=wrap;html=1;startSize=23;" vertex="1" parent="GW7OH87olpXqv1E2z_X4-58">
          <mxGeometry width="200" height="165" as="geometry" />
        </mxCell>
        <mxCell id="GW7OH87olpXqv1E2z_X4-60" value="&lt;b&gt;arr[k] + &quot; &quot;&lt;/b&gt;" style="strokeWidth=2;html=1;shape=mxgraph.flowchart.display;whiteSpace=wrap;" vertex="1" parent="GW7OH87olpXqv1E2z_X4-59">
          <mxGeometry x="40" y="65" width="100" height="60" as="geometry" />
        </mxCell>
        <mxCell id="GW7OH87olpXqv1E2z_X4-61" value="" style="endArrow=classic;html=1;rounded=0;entryX=0.5;entryY=0;entryDx=0;entryDy=0;entryPerimeter=0;" edge="1" parent="GW7OH87olpXqv1E2z_X4-58" target="GW7OH87olpXqv1E2z_X4-60">
          <mxGeometry width="50" height="50" relative="1" as="geometry">
            <mxPoint x="90" y="25" as="sourcePoint" />
            <mxPoint x="187" y="-25" as="targetPoint" />
            <Array as="points">
              <mxPoint x="90" y="45" />
            </Array>
          </mxGeometry>
        </mxCell>
        <mxCell id="GW7OH87olpXqv1E2z_X4-62" value="" style="endArrow=classic;html=1;rounded=0;entryX=0.5;entryY=0;entryDx=0;entryDy=0;entryPerimeter=0;" edge="1" parent="GW7OH87olpXqv1E2z_X4-58">
          <mxGeometry width="50" height="50" relative="1" as="geometry">
            <mxPoint x="92" y="125" as="sourcePoint" />
            <mxPoint x="92" y="165" as="targetPoint" />
            <Array as="points">
              <mxPoint x="92" y="145" />
            </Array>
          </mxGeometry>
        </mxCell>
        <mxCell id="GW7OH87olpXqv1E2z_X4-63" value="&lt;b&gt;&quot;\n&quot;&lt;/b&gt;" style="strokeWidth=2;html=1;shape=mxgraph.flowchart.display;whiteSpace=wrap;" vertex="1" parent="GW7OH87olpXqv1E2z_X4-35">
          <mxGeometry x="110" y="901" width="100" height="60" as="geometry" />
        </mxCell>
        <mxCell id="GW7OH87olpXqv1E2z_X4-64" value="" style="edgeStyle=orthogonalEdgeStyle;rounded=0;orthogonalLoop=1;jettySize=auto;html=1;" edge="1" parent="GW7OH87olpXqv1E2z_X4-35" target="GW7OH87olpXqv1E2z_X4-63">
          <mxGeometry relative="1" as="geometry">
            <mxPoint x="160" y="878" as="sourcePoint" />
          </mxGeometry>
        </mxCell>
        <mxCell id="GW7OH87olpXqv1E2z_X4-65" value="" style="edgeStyle=orthogonalEdgeStyle;rounded=0;orthogonalLoop=1;jettySize=auto;html=1;" edge="1" parent="GW7OH87olpXqv1E2z_X4-35" source="GW7OH87olpXqv1E2z_X4-50">
          <mxGeometry relative="1" as="geometry">
            <mxPoint x="158" y="478" as="targetPoint" />
          </mxGeometry>
        </mxCell>
        <mxCell id="GW7OH87olpXqv1E2z_X4-81" value="" style="edgeStyle=orthogonalEdgeStyle;rounded=0;orthogonalLoop=1;jettySize=auto;html=1;" edge="1" parent="GW7OH87olpXqv1E2z_X4-35" source="GW7OH87olpXqv1E2z_X4-49">
          <mxGeometry relative="1" as="geometry">
            <mxPoint x="300" y="482" as="targetPoint" />
          </mxGeometry>
        </mxCell>
        <mxCell id="GW7OH87olpXqv1E2z_X4-38" value="" style="edgeStyle=orthogonalEdgeStyle;rounded=0;orthogonalLoop=1;jettySize=auto;html=1;" edge="1" parent="WIyWlLk6GJQsqaUBKTNV-1">
          <mxGeometry relative="1" as="geometry">
            <mxPoint x="537" y="61" as="sourcePoint" />
            <mxPoint x="537.0000000000002" y="101" as="targetPoint" />
          </mxGeometry>
        </mxCell>
        <mxCell id="GW7OH87olpXqv1E2z_X4-53" value="" style="endArrow=classic;html=1;rounded=0;" edge="1" parent="WIyWlLk6GJQsqaUBKTNV-1">
          <mxGeometry width="50" height="50" relative="1" as="geometry">
            <mxPoint x="537" y="126" as="sourcePoint" />
            <mxPoint x="537" y="156" as="targetPoint" />
          </mxGeometry>
        </mxCell>
        <mxCell id="GW7OH87olpXqv1E2z_X4-54" value="" style="endArrow=classic;html=1;rounded=0;" edge="1" parent="WIyWlLk6GJQsqaUBKTNV-1">
          <mxGeometry width="50" height="50" relative="1" as="geometry">
            <mxPoint x="536" y="271" as="sourcePoint" />
            <mxPoint x="536" y="316" as="targetPoint" />
          </mxGeometry>
        </mxCell>
        <mxCell id="GW7OH87olpXqv1E2z_X4-57" value="" style="group" vertex="1" connectable="0" parent="WIyWlLk6GJQsqaUBKTNV-1">
          <mxGeometry x="83" y="485" width="200" height="165" as="geometry" />
        </mxCell>
        <mxCell id="GW7OH87olpXqv1E2z_X4-6" value="k = 0; k&amp;lt;8;k++" style="swimlane;whiteSpace=wrap;html=1;startSize=23;" vertex="1" parent="GW7OH87olpXqv1E2z_X4-57">
          <mxGeometry width="200" height="165" as="geometry" />
        </mxCell>
        <mxCell id="GW7OH87olpXqv1E2z_X4-12" value="&lt;b&gt;arr[k] + &quot; &quot;&lt;/b&gt;" style="strokeWidth=2;html=1;shape=mxgraph.flowchart.display;whiteSpace=wrap;" vertex="1" parent="GW7OH87olpXqv1E2z_X4-6">
          <mxGeometry x="40" y="65" width="100" height="60" as="geometry" />
        </mxCell>
        <mxCell id="GW7OH87olpXqv1E2z_X4-13" value="" style="endArrow=classic;html=1;rounded=0;entryX=0.5;entryY=0;entryDx=0;entryDy=0;entryPerimeter=0;" edge="1" parent="GW7OH87olpXqv1E2z_X4-57" target="GW7OH87olpXqv1E2z_X4-12">
          <mxGeometry width="50" height="50" relative="1" as="geometry">
            <mxPoint x="90" y="25" as="sourcePoint" />
            <mxPoint x="187" y="-25" as="targetPoint" />
            <Array as="points">
              <mxPoint x="90" y="45" />
            </Array>
          </mxGeometry>
        </mxCell>
        <mxCell id="GW7OH87olpXqv1E2z_X4-14" value="" style="endArrow=classic;html=1;rounded=0;entryX=0.5;entryY=0;entryDx=0;entryDy=0;entryPerimeter=0;" edge="1" parent="GW7OH87olpXqv1E2z_X4-57">
          <mxGeometry width="50" height="50" relative="1" as="geometry">
            <mxPoint x="92" y="125" as="sourcePoint" />
            <mxPoint x="92" y="165" as="targetPoint" />
            <Array as="points">
              <mxPoint x="92" y="145" />
            </Array>
          </mxGeometry>
        </mxCell>
        <mxCell id="GW7OH87olpXqv1E2z_X4-68" value="" style="edgeStyle=orthogonalEdgeStyle;rounded=0;orthogonalLoop=1;jettySize=auto;html=1;" edge="1" parent="WIyWlLk6GJQsqaUBKTNV-1">
          <mxGeometry relative="1" as="geometry">
            <mxPoint x="540" y="582" as="sourcePoint" />
            <mxPoint x="540" y="632" as="targetPoint" />
            <Array as="points">
              <mxPoint x="540" y="580" />
              <mxPoint x="540" y="580" />
            </Array>
          </mxGeometry>
        </mxCell>
        <mxCell id="GW7OH87olpXqv1E2z_X4-70" value="" style="edgeStyle=orthogonalEdgeStyle;rounded=0;orthogonalLoop=1;jettySize=auto;html=1;" edge="1" parent="WIyWlLk6GJQsqaUBKTNV-1" source="GW7OH87olpXqv1E2z_X4-63">
          <mxGeometry relative="1" as="geometry">
            <mxPoint x="540" y="1090" as="targetPoint" />
          </mxGeometry>
        </mxCell>
        <mxCell id="GW7OH87olpXqv1E2z_X4-76" value="" style="endArrow=classic;html=1;rounded=0;" edge="1" parent="WIyWlLk6GJQsqaUBKTNV-1">
          <mxGeometry width="50" height="50" relative="1" as="geometry">
            <mxPoint x="547" y="791" as="sourcePoint" />
            <mxPoint x="547" y="811" as="targetPoint" />
          </mxGeometry>
        </mxCell>
        <mxCell id="GW7OH87olpXqv1E2z_X4-77" value="END" style="strokeWidth=2;html=1;shape=mxgraph.flowchart.terminator;whiteSpace=wrap;" vertex="1" parent="WIyWlLk6GJQsqaUBKTNV-1">
          <mxGeometry x="490" y="1109" width="110" height="51" as="geometry" />
        </mxCell>
        <mxCell id="GW7OH87olpXqv1E2z_X4-85" value="" style="edgeStyle=orthogonalEdgeStyle;rounded=0;orthogonalLoop=1;jettySize=auto;html=1;" edge="1" parent="WIyWlLk6GJQsqaUBKTNV-1">
          <mxGeometry relative="1" as="geometry">
            <mxPoint x="540" y="1081" as="sourcePoint" />
            <mxPoint x="540" y="1108" as="targetPoint" />
            <Array as="points">
              <mxPoint x="540" y="1108" />
              <mxPoint x="540" y="1108" />
            </Array>
          </mxGeometry>
        </mxCell>
      </root>
    </mxGraphModel>
  </diagram>
</mxfile>
